<svg id="Layer_1" data-name="Layer 1" xmlns="http://www.w3.org/2000/svg" viewBox="0 0 910 567"><defs><clipPath id="clip-path"><path class="cls-1" d="M819.67 509.41s0 6-5.41 5.8l-1 21.38 14.82-25.45z"/></clipPath><clipPath id="clip-path-2"><path class="cls-1" d="M760.64 531.2s-5.31 2.75-7.65-2.09l-19.38 9.08 29.39 1.28z"/></clipPath><style>.cls-1{fill:none}.cls-5{fill:#cde4f7}.cls-6{fill:#e9edf4}.cls-7{fill:#fff}.cls-8{fill:#ecf7fe}.cls-9{fill:#f8c47a}.cls-10{fill:#e19a54}.cls-11{fill:#ffdf9a}.cls-12{fill:#d38137}.cls-16{fill:#e4e6e6}.cls-19{fill:#ce8d4d}.cls-21{fill:#c07632}.cls-23{fill:#f09976}.cls-25{fill:#0b2b46}.cls-28{fill:#047487}.cls-30{fill:#02819f}.cls-31{fill:#ffda35}.cls-32{fill:#0f222c}.cls-34{fill:#228211}.cls-35{fill:#316815}.cls-36{fill:#4c9b23}.cls-38{fill:#3c821c}.cls-39{fill:#53af28}.cls-41{fill:#64ce38}.cls-42{fill:#52b82d}.cls-43{fill:#ff524f}.cls-45{fill:#f2f2f2}</style></defs><ellipse cx="455.13" cy="501.06" rx="454.87" ry="64.89" fill="#eaf1fc"/><path d="M846 476.83c59.26-117.91 91.87-343.6-36.49-418.51-84-49-171.54 14.05-261.4 16.94C477.61 77.52 409.62 24.2 346 9 179.28-30.91-83 72.82 32.34 476.83c288.32-.78 525.34.79 813.66 0z" fill="#f8f8ff"/><g opacity=".5"><path class="cls-5" d="M516.71 194.72h164.81v279.69H516.71z"/><path class="cls-6" d="M516.71 194.72h51.34v279.69h-51.34z"/><path class="cls-7" d="M663.36 208.03h7.59v8.01h-7.59zm-13.84 0h7.59v8.01h-7.59zm-13.84 0h7.59v8.01h-7.59zm-13.83 0h7.59v8.01h-7.59zm-13.84 0h7.59v8.01h-7.59zm-13.84 0h7.59v8.01h-7.59zm-13.84 0h7.59v8.01h-7.59zm-25.37 0h7.59v8.01h-7.59zm-13.83 0h7.59v8.01h-7.59zm-13.84 0h7.59v8.01h-7.59zm136.07 16.87h7.59v8.01h-7.59zm-13.84 0h7.59v8.01h-7.59zm-13.84 0h7.59v8.01h-7.59zm-13.83 0h7.59v8.01h-7.59zm-13.84 0h7.59v8.01h-7.59zm-13.84 0h7.59v8.01h-7.59zm-13.84 0h7.59v8.01h-7.59zm-25.37 0h7.59v8.01h-7.59zm-13.83 0h7.59v8.01h-7.59zm-13.84 0h7.59v8.01h-7.59zm136.07 16.86h7.59v8.01h-7.59zm-13.84 0h7.59v8.01h-7.59zm-13.84 0h7.59v8.01h-7.59zm-13.83 0h7.59v8.01h-7.59zm-13.84 0h7.59v8.01h-7.59zm-13.84 0h7.59v8.01h-7.59zm-13.84 0h7.59v8.01h-7.59zm-25.37 0h7.59v8.01h-7.59zm-13.83 0h7.59v8.01h-7.59zm-13.84 0h7.59v8.01h-7.59zm136.07 16.86h7.59v8.01h-7.59zm-13.84 0h7.59v8.01h-7.59zm-13.84 0h7.59v8.01h-7.59zm-13.83 0h7.59v8.01h-7.59zm-13.84 0h7.59v8.01h-7.59zm-13.84 0h7.59v8.01h-7.59zm-13.84 0h7.59v8.01h-7.59zm-25.37 0h7.59v8.01h-7.59zm-13.83 0h7.59v8.01h-7.59zm-13.84 0h7.59v8.01h-7.59zm136.07 16.87h7.59v8.01h-7.59zm-13.84 0h7.59v8.01h-7.59zm-13.84 0h7.59v8.01h-7.59zm-13.83 0h7.59v8.01h-7.59zm-13.84 0h7.59v8.01h-7.59zm-13.84 0h7.59v8.01h-7.59zm-13.84 0h7.59v8.01h-7.59zm-25.37 0h7.59v8.01h-7.59zm-13.83 0h7.59v8.01h-7.59zm-13.84 0h7.59v8.01h-7.59zm136.07 16.86h7.59v8.01h-7.59zm-13.84 0h7.59v8.01h-7.59zm-13.84 0h7.59v8.01h-7.59zm-13.83 0h7.59v8.01h-7.59zm-13.84 0h7.59v8.01h-7.59zm-13.84 0h7.59v8.01h-7.59zm-13.84 0h7.59v8.01h-7.59zm-25.37 0h7.59v8.01h-7.59zm-13.83 0h7.59v8.01h-7.59zm-13.84 0h7.59v8.01h-7.59zm136.07 16.86h7.59v8.01h-7.59zm-13.84 0h7.59v8.01h-7.59zm-13.84 0h7.59v8.01h-7.59zm-13.83 0h7.59v8.01h-7.59zm-13.84 0h7.59v8.01h-7.59zm-13.84 0h7.59v8.01h-7.59zm-13.84 0h7.59v8.01h-7.59zm-25.37 0h7.59v8.01h-7.59zm-13.83 0h7.59v8.01h-7.59zm-13.84 0h7.59v8.01h-7.59zm136.07 16.87h7.59v8.01h-7.59zm-13.84 0h7.59v8.01h-7.59zm-13.84 0h7.59v8.01h-7.59zm-13.83 0h7.59v8.01h-7.59zm-13.84 0h7.59v8.01h-7.59zm-13.84 0h7.59v8.01h-7.59zm-13.84 0h7.59v8.01h-7.59zm-25.37 0h7.59v8.01h-7.59zm-13.83 0h7.59v8.01h-7.59zm-13.84 0h7.59v8.01h-7.59zm136.07 16.86h7.59v8.01h-7.59zm-13.84 0h7.59v8.01h-7.59zm-13.84 0h7.59v8.01h-7.59zm-13.83 0h7.59v8.01h-7.59zm-13.84 0h7.59v8.01h-7.59zm-13.84 0h7.59v8.01h-7.59zm-13.84 0h7.59v8.01h-7.59zm-25.37 0h7.59v8.01h-7.59zm-13.83 0h7.59v8.01h-7.59zm-13.84 0h7.59v8.01h-7.59zm136.07 16.86h7.59v8.01h-7.59zm-13.84 0h7.59v8.01h-7.59zm-13.84 0h7.59v8.01h-7.59zm-13.83 0h7.59v8.01h-7.59zm-13.84 0h7.59v8.01h-7.59zm-13.84 0h7.59v8.01h-7.59zm-13.84 0h7.59v8.01h-7.59zm83.03 16.87h7.59v8.01h-7.59zm-13.84 0h7.59v8.01h-7.59zm-13.84 0h7.59v8.01h-7.59zm-13.83 0h7.59v8.01h-7.59zm-13.84 0h7.59v8.01h-7.59zm55.35 16.86h7.59v8.01h-7.59zm-13.84 0h7.59v8.01h-7.59zm-13.84 0h7.59v8.01h-7.59zm-13.83 0h7.59v8.01h-7.59zm41.51 16.86h7.59v8.01h-7.59zm-13.84 0h7.59v8.01h-7.59zm-13.84 0h7.59v8.01h-7.59zm27.68 16.87h7.59v8.01h-7.59zm-13.84 0h7.59v8.01h-7.59zm13.84 16.86h7.59v8.01h-7.59zm-13.84 0h7.59v8.01h-7.59z"/><path class="cls-5" d="M91.94 198.38h135.91v278.1H91.94z"/><path class="cls-6" d="M91.94 198.38h42.34v278.1H91.94z"/><path class="cls-7" d="M178.64 211.61h6.26v30.73h-6.26zm-11.41 0h6.26v30.73h-6.26zm-11.41 0h6.26v30.73h-6.26zm-11.41 0h6.26v30.73h-6.26zm-20.93 0h6.26v30.73h-6.26zm-11.41 0h6.26v30.73h-6.26zm-11.41 0h6.26v30.73h-6.26zm77.98 34.74h6.26v30.73h-6.26zm-11.41 0h6.26v30.73h-6.26zm-11.41 0h6.26v30.73h-6.26zm-11.41 0h6.26v30.73h-6.26zm-20.93 0h6.26v30.73h-6.26zm-11.41 0h6.26v30.73h-6.26zm-11.41 0h6.26v30.73h-6.26zm77.98 34.73h6.26v30.73h-6.26zm-11.41 0h6.26v30.73h-6.26zm-11.41 0h6.26v30.73h-6.26zm-11.41 0h6.26v30.73h-6.26zm-20.93 0h6.26v30.73h-6.26zm-11.41 0h6.26v30.73h-6.26zm-11.41 0h6.26v30.73h-6.26zm77.98 34.74h6.26v30.73h-6.26zm-11.41 0h6.26v30.73h-6.26zm-11.41 0h6.26v30.73h-6.26zm-11.41 0h6.26v30.73h-6.26zm-20.93 0h6.26v30.73h-6.26zm-11.41 0h6.26v30.73h-6.26zm-11.41 0h6.26v30.73h-6.26zm77.98 34.73h6.26v30.73h-6.26zm-11.41 0h6.26v30.73h-6.26zm-11.41 0h6.26v30.73h-6.26zm-11.41 0h6.26v30.73h-6.26zm-20.93 0h6.26v30.73h-6.26zm-11.41 0h6.26v30.73h-6.26zm-11.41 0h6.26v30.73h-6.26zm77.98 34.74h6.26v30.73h-6.26zm-11.41 0h6.26v30.73h-6.26zm-11.41 0h6.26v30.73h-6.26zm-11.41 0h6.26v30.73h-6.26zm-20.93 0h6.26v30.73h-6.26zm-11.41 0h6.26v30.73h-6.26zm-11.41 0h6.26v30.73h-6.26zm77.98 34.73h6.26v30.73h-6.26zm-11.41 0h6.26v30.73h-6.26zm-11.41 0h6.26v30.73h-6.26zm-11.41 0h6.26v30.73h-6.26zm-20.93 0h6.26v30.73h-6.26zm-11.41 0h6.26v30.73h-6.26zm-11.41 0h6.26v30.73h-6.26z"/><path class="cls-5" d="M680.17 244.44h166.65v229.98H680.17z"/><path class="cls-6" d="M680.17 244.44h51.92v229.98h-51.92z"/><path class="cls-7" d="M680.17 257.01h166.65v1.92H680.17zm0 15.18h166.65v1.92H680.17zm0 15.18h166.65v1.92H680.17zm0 15.18h166.65v1.92H680.17zm0 15.18h166.65v1.92H680.17zm0 15.19h166.65v1.92H680.17zm0 15.18h166.65v1.92H680.17zm0 15.18h166.65v1.92H680.17zm0 15.18h166.65v1.92H680.17zm0 15.18h166.65v1.92H680.17zm0 15.18h166.65v1.92H680.17zm0 15.18h166.65v1.92H680.17zm0 15.18h166.65v1.92H680.17zm0 15.18h166.65v1.92H680.17z"/><path class="cls-5" d="M188.5 122.88h172.81v353.59H188.5z"/><path class="cls-8" d="M188.5 122.88h53.84v353.59H188.5z"/><path class="cls-7" d="M342.27 139.71h7.96v10.13h-7.96zm-14.51 0h7.96v10.13h-7.96zm-14.51 0h7.96v10.13h-7.96zm-14.51 0h7.96v10.13h-7.96zm-14.51 0h7.96v10.13h-7.96zm-14.51 0h7.96v10.13h-7.96zm-14.51 0h7.96v10.13h-7.96zm-26.6 0h7.96v10.13h-7.96zm-14.51 0h7.96v10.13h-7.96zm-14.51 0h7.96v10.13h-7.96zm142.68 21.31h7.96v10.13h-7.96zm-14.51 0h7.96v10.13h-7.96zm-14.51 0h7.96v10.13h-7.96zm-14.51 0h7.96v10.13h-7.96zm-14.51 0h7.96v10.13h-7.96zm-14.51 0h7.96v10.13h-7.96zm-14.51 0h7.96v10.13h-7.96zm-26.6 0h7.96v10.13h-7.96zm-14.51 0h7.96v10.13h-7.96zm-14.51 0h7.96v10.13h-7.96zm142.68 21.32h7.96v10.13h-7.96zm-14.51 0h7.96v10.13h-7.96zm-14.51 0h7.96v10.13h-7.96zm-14.51 0h7.96v10.13h-7.96zm-14.51 0h7.96v10.13h-7.96zm-14.51 0h7.96v10.13h-7.96zm-14.51 0h7.96v10.13h-7.96zm-26.6 0h7.96v10.13h-7.96zm-14.51 0h7.96v10.13h-7.96zm-14.51 0h7.96v10.13h-7.96zm142.68 21.32h7.96v10.13h-7.96zm-14.51 0h7.96v10.13h-7.96zm-14.51 0h7.96v10.13h-7.96zm-14.51 0h7.96v10.13h-7.96zm-14.51 0h7.96v10.13h-7.96zm-14.51 0h7.96v10.13h-7.96zm-14.51 0h7.96v10.13h-7.96zm-26.6 0h7.96v10.13h-7.96zm-14.51 0h7.96v10.13h-7.96zm-14.51 0h7.96v10.13h-7.96zm142.68 21.32h7.96v10.13h-7.96zm-14.51 0h7.96v10.13h-7.96zm-14.51 0h7.96v10.13h-7.96zm-14.51 0h7.96v10.13h-7.96zm-14.51 0h7.96v10.13h-7.96zm-14.51 0h7.96v10.13h-7.96zm-14.51 0h7.96v10.13h-7.96zm-26.6 0h7.96v10.13h-7.96zm-14.51 0h7.96v10.13h-7.96zm-14.51 0h7.96v10.13h-7.96zm142.68 21.32h7.96v10.13h-7.96zm-14.51 0h7.96v10.13h-7.96zm-14.51 0h7.96v10.13h-7.96zm-14.51 0h7.96v10.13h-7.96zm-14.51 0h7.96v10.13h-7.96zm-14.51 0h7.96v10.13h-7.96zm-14.51 0h7.96v10.13h-7.96zm-26.6 0h7.96v10.13h-7.96zm-14.51 0h7.96v10.13h-7.96zm-14.51 0h7.96v10.13h-7.96zm142.68 21.32h7.96v10.13h-7.96zm-14.51 0h7.96v10.13h-7.96zm-14.51 0h7.96v10.13h-7.96zm-14.51 0h7.96v10.13h-7.96zm-14.51 0h7.96v10.13h-7.96zm-14.51 0h7.96v10.13h-7.96zm-14.51 0h7.96v10.13h-7.96zm-26.6 0h7.96v10.13h-7.96zm-14.51 0h7.96v10.13h-7.96zm-14.51 0h7.96v10.13h-7.96zm142.68 21.32h7.96v10.13h-7.96zm-14.51 0h7.96v10.13h-7.96zm-14.51 0h7.96v10.13h-7.96zm-14.51 0h7.96v10.13h-7.96zm-14.51 0h7.96v10.13h-7.96zm-14.51 0h7.96v10.13h-7.96zm-14.51 0h7.96v10.13h-7.96zm-26.6 0h7.96v10.13h-7.96zm-14.51 0h7.96v10.13h-7.96zm-14.51 0h7.96v10.13h-7.96zm70.13 21.32h7.96v10.13h-7.96zm-14.51 0h7.96v10.13h-7.96zm-26.6 0h7.96v10.13h-7.96zm-14.51 0h7.96v10.13h-7.96zm-14.51 0h7.96v10.13h-7.96zm29.02 21.32h7.96v10.13h-7.96zm-14.51 0h7.96v10.13h-7.96zm-14.51 0h7.96v10.13h-7.96zm70.13 21.32h7.96v10.13h-7.96zm-14.51 0h7.96v10.13h-7.96zm-26.6 0h7.96v10.13h-7.96zm-14.51 0h7.96v10.13h-7.96zm-14.51 0h7.96v10.13h-7.96zm70.13 21.32h7.96v10.13h-7.96zm-14.51 0h7.96v10.13h-7.96zm-26.6 0h7.96v10.13h-7.96zm-14.51 0h7.96v10.13h-7.96zm-14.51 0h7.96v10.13h-7.96zm70.13 21.31h7.96v10.13h-7.96zm-14.51 0h7.96v10.13h-7.96zm-26.6 0h7.96v10.13h-7.96zm-14.51 0h7.96v10.13h-7.96zm-14.51 0h7.96v10.13h-7.96zm70.13 21.32h7.96v10.13h-7.96zm-14.51 0h7.96v10.13h-7.96zm-26.6 0h7.96v10.13h-7.96zm-14.51 0h7.96v10.13h-7.96zm-14.51 0h7.96v10.13h-7.96zm70.13 21.32h7.96v10.13h-7.96zm-14.51 0h7.96v10.13h-7.96zm-26.6 0h7.96v10.13h-7.96zm-14.51 0h7.96v10.13h-7.96zm-14.51 0h7.96v10.13h-7.96z"/><path class="cls-8" d="M337.05 122.88H212.77V108a11.38 11.38 0 0111.36-11.36h101.56A11.38 11.38 0 01337.05 108z"/></g><path id="SVGID" class="cls-5" d="M873.17 407.17c3.8-.66 6.44 3.3 7.18 6.78.4 1.86.41 4 1.85 5.27a11.4 11.4 0 002.11 1.16c4.2 2.17 4.47 6.21 4.55 10.27a3.94 3.94 0 00.38 2c.39.66 1.14 1 1.57 1.68a4.29 4.29 0 01.55 1.47c1.06 4.61.5 8.85.47 13.46-.25 32.79-18.09 31.26-18.09 31.26H873c-4.32-.21-8.21-2.87-10.78-6.22a29.21 29.21 0 01-5-11.91 66.26 66.26 0 01-1.09-9.43c-.2-3.42-.92-6.6.41-9.92.61-1.52 1.54-3 1.54-4.62 0-1.79-1.1-3.43-1.16-5.22a8 8 0 01.7-3.12 51.36 51.36 0 013.25-7.27c1-1.76 3.35-2.77 4-4.78a9.75 9.75 0 00.18-2.53c.14-4.18 3.77-7.12 7.55-8.17a5.52 5.52 0 01.57-.16z"/><path class="cls-7" d="M876.44 514.14h-4.29l1.41-52.57.64-1.31 2.24 53.88z"/><path id="SVGID-2" class="cls-5" d="M56.2 353.52c5.08-.88 8.6 4.42 9.59 9.06.53 2.49.54 5.39 2.48 7a13.78 13.78 0 002.82 1.54c5.61 2.89 6 8.3 6.08 13.72a5.4 5.4 0 00.51 2.65c.52.88 1.52 1.39 2.1 2.24a5.68 5.68 0 01.74 2c1.42 6.16.67 11.82.62 18C80.8 453.52 57 451.48 57 451.48a7.37 7.37 0 01-.94 0c-5.77-.28-11-3.83-14.4-8.31s-5.51-10.29-6.66-15.92a86.06 86.06 0 01-1.45-12.6c-.26-4.56-1.23-8.82.55-13.26.82-2 2-4 2.06-6.18 0-2.39-1.47-4.58-1.54-7a10.87 10.87 0 01.93-4.17 67.55 67.55 0 014.35-9.71c1.38-2.35 4.48-3.71 5.3-6.39a12.78 12.78 0 00.23-3.38c.19-5.58 5-9.52 10.08-10.92z"/><path class="cls-7" d="M60.58 496.43h-5.74l1.88-70.23.85-1.75 3.01 71.98z"/><path class="cls-9" d="M84.82 484.13h39.51v39.51H84.82z"/><path class="cls-10" d="M144.09 477.54l-19.75 6.59v39.51l19.75-6.59v-39.51z"/><path class="cls-11" d="M84.82 484.13l19.76-6.59h39.51l-19.75 6.59H84.82z"/><path class="cls-12" d="M130.36 510.57v11.01l5.91-1.92V508.6l-5.91 1.97zm0-28.45v11.02l5.91-1.93v-11.06l-5.91 1.97z"/><path class="cls-10" d="M96.76 480.15l-.81.27-1.25.41-4.13 1.29h39.79l5.91-1.97H96.76z"/><path fill="#eab973" d="M91.27 452.15h29.3v29.3h-29.3z"/><path fill="#d3914f" d="M135.22 447.27l-14.65 4.88v29.3l14.65-4.88v-29.3z"/><path fill="#f1d392" d="M91.27 452.15l14.65-4.88h29.3l-14.65 4.88h-29.3z"/><path class="cls-16" d="M109.36 454.02h9.95v4.31h-9.95z"/><path class="cls-16" d="M110.34 454.43h.19v3.39h-.19zm.53 0h.19v3.39h-.19zm.52 0h.19v3.39h-.19zm.53 0h.19v3.39h-.19z"/><path class="cls-16" d="M111.94 454.43h.19v3.39h-.19zm.52 0h.19v3.39h-.19zm.53 0h.19v3.39h-.19zm.53 0h.19v3.39h-.19zm.33 0h.19v3.39h-.19zm.51 0h.19v3.39h-.19zm.5 0h.19v3.39h-.19zm.53 0h.19v3.39h-.19zm.53 0h.19v3.39h-.19zm.52 0h.19v3.39h-.19z"/><path class="cls-16" d="M116.46 454.43h.19v3.39h-.19zm.53 0h.19v3.39h-.19zm.52 0h.19v3.39h-.19zm.53 0h.19v3.39h-.19z"/><path d="M115.51 447.27l-12.12 4.88h5.06l11.76-4.88h-4.7zm-12.12 4.88v5.67h5.01l.05-5.67h-5.06zm0 23.79v5.67h5.01l.05-5.67h-5.06z" fill="#c08448"/><path class="cls-9" d="M126.72 472.13h51.51v51.51h-51.51z"/><path class="cls-10" d="M203.99 463.54l-25.76 8.59v51.51l25.76-8.59v-51.51z"/><path class="cls-11" d="M126.72 472.13l25.75-8.59h51.52l-25.76 8.59h-51.51z"/><path class="cls-12" d="M186.08 506.6v14.36l7.71-2.51v-14.42l-7.71 2.57zm0-37.09v14.36l7.71-2.5v-14.43l-7.71 2.57z"/><path class="cls-10" d="M142.28 466.94l-1.06.35-1.62.55-5.39 1.67h51.87l7.71-2.57h-51.51z"/><path class="cls-16" d="M158.53 475.41h17.49v7.57h-17.49z"/><path class="cls-16" d="M160.25 476.13h.34v5.97h-.34zm.93 0h.34v5.97h-.34zm.92 0h.34v5.97h-.34zm.93 0h.34v5.97h-.34z"/><path class="cls-16" d="M163.06 476.13h.34v5.97h-.34zm.92 0h.34v5.97h-.34zm.93 0h.34v5.97h-.34zm.92 0h.34v5.97h-.34zm.59 0h.34v5.97h-.34zm.89 0h.34v5.97h-.34zm.89 0h.34v5.97h-.34zm.93 0h.34v5.97h-.34zm.92 0h.34v5.97h-.34zm.93 0h.34v5.97h-.34z"/><path class="cls-16" d="M171.01 476.13h.34v5.97h-.34zm.92 0h.34v5.97h-.34zm.93 0h.34v5.97h-.34zm.92 0h.34v5.97h-.34z"/><path fill="#e5b571" d="M126.27 428.87h44.15v44.15h-44.15z"/><path class="cls-19" d="M192.5 421.51l-22.07 7.36v44.15l22.07-7.35v-44.16z"/><path fill="#eccf8f" d="M126.27 428.87l22.08-7.36h44.15l-22.07 7.36h-44.16z"/><path class="cls-21" d="M177.16 458.42v12.31l6.61-2.15v-12.37l-6.61 2.21zm0-31.79v12.31l6.61-2.15v-12.36l-6.61 2.2z"/><path class="cls-19" d="M139.61 424.43l-.91.3-1.39.46-4.62 1.44h44.47l6.61-2.2h-44.16z"/><path class="cls-16" d="M153.54 431.68h14.99v6.49h-14.99z"/><path class="cls-16" d="M155.02 432.3h.29v5.11h-.29zm.79 0h.29v5.11h-.29zm.79 0h.29v5.11h-.29zm.8 0h.29v5.11h-.29z"/><path class="cls-16" d="M157.42 432.3h.29v5.11h-.29zm.8 0h.29v5.11h-.29zm.79 0h.29v5.11h-.29zm.79 0h.29v5.11h-.29zm.5 0h.29v5.11h-.29zm.77 0h.29v5.11h-.29zm.76 0h.29v5.11h-.29zm.8 0h.29v5.11h-.29zm.79 0h.29v5.11h-.29zm.79 0h.29v5.11h-.29z"/><path class="cls-16" d="M164.24 432.3h.29v5.11h-.29zm.79 0h.29v5.11h-.29zm.79 0h.29v5.11h-.29zm.8 0h.29v5.11h-.29z"/><path d="M741.42 386.08c.45-.06 1 .77 1.65 2.28.33.75.7 1.68 1.12 2.72s.89 2.21 1.46 3.44a31 31 0 002 3.72A21 21 0 00749 400a19.15 19.15 0 001.53 1.59 14.2 14.2 0 001.74 1.35 12.19 12.19 0 001.89 1 9.84 9.84 0 002 .61 4 4 0 00.5.09l.51.07a6.67 6.67 0 001 0 15.57 15.57 0 004.34-.65c.72-.22 1.44-.45 2.14-.73.35-.13.69-.29 1-.43s.68-.3 1-.47c.66-.31 1.28-.67 1.89-1s1.22-.73 1.8-1.12c1.17-.76 2.27-1.54 3.31-2.28s2-1.44 3-2a20 20 0 012.58-1.48 6.87 6.87 0 012.16-.67 2.45 2.45 0 011.63.34 2.31 2.31 0 01.9 1.4 6.14 6.14 0 010 2.34 13.37 13.37 0 01-.94 3.16 20.82 20.82 0 01-2.1 3.78 25.47 25.47 0 01-3.54 4.08 28.3 28.3 0 01-2.38 2 25 25 0 01-2.85 1.82c-.5.29-1 .54-1.57.8s-1.09.5-1.67.7a25.28 25.28 0 01-3.63 1.09 22.23 22.23 0 01-8.29.27 20 20 0 01-2.17-.48l-1-.34c-.35-.11-.68-.26-1-.39a18.76 18.76 0 01-3.69-2 19.27 19.27 0 01-3-2.61 20.64 20.64 0 01-2.22-2.88 21.52 21.52 0 01-1.59-3 22.56 22.56 0 01-1-2.9 28 28 0 01-.93-5.14 35.43 35.43 0 01-.11-4.12 27.37 27.37 0 01.25-3c.16-1.74.51-2.66.93-2.72z" fill="#e08f73"/><path class="cls-7" d="M764.61 408.27a208.61 208.61 0 000 25.5 54 54 0 0025.21 2.05c.56-8.63 1.11-17.27 1.14-25.92 0-4.56-.13-9.17-1.41-13.52a18.63 18.63 0 00-6.54-9.91 12.76 12.76 0 00-1.16-.75c-1.91 1.58-5.93 2.16-8.14 1.1a15.38 15.38 0 00-3.16 2.81 21.23 21.23 0 00-3.79 6.75 46.66 46.66 0 00-2.15 11.89z"/><path class="cls-23" d="M770.52 389.64a13.4 13.4 0 006.54.05 13 13 0 003.29-1.3 13.43 13.43 0 002.29-1.6l.06-.51v-.21l-.12-.72c-.41-2.41-.77-4.84-1.11-7.27-.32-2.24-.62-4.48-.92-6.71a45.38 45.38 0 00-7.2 4.41c0 1.52-.12 3-.25 4.54-.11 1.27-.26 2.54-.44 3.8-.1.71-.21 1.41-.34 2.11s-.24 1.31-.38 2a11.82 11.82 0 00-1.42 1.41z"/><path d="M772.66 384.12a39.19 39.19 0 018.81-6c-.32-2.24-.62-4.48-.92-6.71a45.38 45.38 0 00-7.2 4.41c0 1.52-.12 3-.25 4.54-.1 1.23-.26 2.5-.44 3.76z" fill="#e8815f"/><path class="cls-25" d="M819.67 509.41s0 6-5.41 5.8l-1 21.38 14.82-25.45z"/><g clip-path="url(#clip-path)"><path class="cls-7" d="M809.86 530.66S814.49 525 822 530l-9.37 9.08z"/></g><path class="cls-7" d="M815.91 537.23l14-24.12a.77.77 0 00-.28-1.05l-1.56-.91-14.78 25.45 1.56.91a.78.78 0 001.06-.28zm1.44-17.59a.51.51 0 01-.24.1 10.55 10.55 0 00-3.11.84.46.46 0 01-.62-.19.52.52 0 01.23-.66 10.73 10.73 0 013.43-.94.46.46 0 01.51.41.45.45 0 01-.2.44zm-.18 2.69a.51.51 0 01-.24.1 10.55 10.55 0 00-3.11.84.46.46 0 01-.62-.19.52.52 0 01.23-.66 10.73 10.73 0 013.43-.94.46.46 0 01.51.41.47.47 0 01-.2.44zM817 525a.51.51 0 01-.24.1 10.55 10.55 0 00-3.11.84.46.46 0 01-.62-.19.52.52 0 01.23-.66 10.73 10.73 0 013.43-.94.46.46 0 01.51.41.47.47 0 01-.2.44z"/><path class="cls-25" d="M760.64 531.2s-5.31 2.75-7.65-2.09l-19.38 9.08 29.39 1.28z"/><g clip-path="url(#clip-path-2)"><path class="cls-7" d="M737.27 532.39s7.21 1.45 6.2 10.45l-12.39-4.07z"/></g><path class="cls-7" d="M734.46 540.81l27.48 1.2a1 1 0 001-.93l.07-1.6-29.41-1.28-.07 1.6a1 1 0 00.93 1.01zm16.05-6.91a.55.55 0 01-.2-.17 10.44 10.44 0 00-2.19-2.36.45.45 0 01-.13-.62.51.51 0 01.69-.1 11.33 11.33 0 012.43 2.6.45.45 0 01-.11.63.48.48 0 01-.49.02zM748 535a.55.55 0 01-.2-.17 10.44 10.44 0 00-2.19-2.36.45.45 0 01-.13-.62.51.51 0 01.69-.1 11.33 11.33 0 012.43 2.6.45.45 0 01-.11.63.51.51 0 01-.49.02zm-2.42 1.07a.55.55 0 01-.2-.17 10.44 10.44 0 00-2.19-2.36.45.45 0 01-.13-.62.51.51 0 01.69-.1 11.33 11.33 0 012.43 2.6.45.45 0 01-.11.63.51.51 0 01-.49.02z"/><path class="cls-28" d="M790.47 440.76s-6.76 39.88 33.7 68.3l-10.9 11.86s-45.27-31.06-40.65-71.06z"/><path d="M792 464c-.62.82-1.25 1.64-1.85 2.48a47.1 47.1 0 00-3.95 7.12 82.5 82.5 0 00-4.83 12.82c-6.17-10.59-10.32-23.07-8.75-36.57l17.76-9.06S788.71 450.6 792 464z" fill="#05616b"/><path class="cls-30" d="M764.46 401.09a198.74 198.74 0 00-.62 42.51s-22.27 43.61-17.42 87.4l17 4.24s3.87-57.51 26.92-86.63l1-28.81-18.28-3-1.59-15.44z"/><path class="cls-28" d="M790.16 423c.13 0 .3-.16.5-.55a6.66 6.66 0 00.31-.73c.11-.29.21-.63.33-1 .05-.19.11-.4.17-.61s.1-.44.16-.68.11-.49.16-.75.1-.53.14-.81.1-.57.14-.87l.12-.93c.09-.64.13-1.32.19-2a46.25 46.25 0 000-4.71 48.68 48.68 0 00-.53-5.39 50.79 50.79 0 00-1.27-5.85A22.34 22.34 0 00788 392a13 13 0 00-2.36-2.71 10 10 0 00-3.1-1.83 7.65 7.65 0 00-1.76-.42H779a9.1 9.1 0 00-3.19.89 11.07 11.07 0 00-2.53 1.69c-.18.17-.36.32-.53.49l-.49.51-.45.53c-.15.18-.28.37-.41.55a13.94 13.94 0 00-1.29 2.25 16.94 16.94 0 00-.79 2.2 21.85 21.85 0 00-.7 3.86 28.31 28.31 0 00-.11 2.91c0 1.59.16 2.46.32 2.47s.35-.85.63-2.39c.14-.77.31-1.7.55-2.77a25.06 25.06 0 01.99-3.53 13.4 13.4 0 012.12-3.66c.12-.14.24-.29.37-.42l.4-.41.43-.39c.14-.13.3-.24.45-.36a8.52 8.52 0 012-1.17 6.67 6.67 0 012.29-.5h1.23a4.52 4.52 0 011.14.33 8.6 8.6 0 013.84 3.49 20.9 20.9 0 012.15 5.33c.52 1.88.93 3.73 1.25 5.5s.54 3.47.7 5.06.24 3.09.3 4.46v7.58q0 .39.06.78c.2.38.27.62.43.68z"/><path class="cls-9" d="M722.54 388.9h33.88v33.88h-33.88z"/><path class="cls-10" d="M705.6 383.25l16.94 5.65v33.88l-16.94-5.65v-33.88z"/><path class="cls-11" d="M756.42 388.9l-16.94-5.65H705.6l16.94 5.65h33.88z"/><path class="cls-16" d="M723.98 391.05h11.51v4.98h-11.51z"/><path class="cls-16" d="M734.14 391.53h.22v3.92h-.22zm-.61 0h.22v3.92h-.22zm-.6 0h.22v3.92h-.22zm-.61 0h.22v3.92h-.22z"/><path class="cls-16" d="M732.3 391.53h.22v3.92h-.22zm-.61 0h.22v3.92h-.22zm-.61 0h.22v3.92h-.22zm-.61 0h.22v3.92h-.22zm-.38 0h.22v3.92h-.22zm-.59 0h.22v3.92h-.22zm-.59 0h.22v3.92h-.22zm-.61 0h.22v3.92h-.22zm-.6 0h.22v3.92h-.22zm-.61 0h.22v3.92h-.22z"/><path class="cls-16" d="M727.07 391.53h.22v3.92h-.22zm-.61 0h.22v3.92h-.22zm-.61 0h.22v3.92h-.22zm-.61 0h.22v3.92h-.22z"/><path class="cls-19" d="M728.39 383.25l14.02 5.65h-5.86l-13.6-5.65h5.44zm14.02 5.65v6.56h-5.81l-.05-6.56h5.86zm0 27.51v6.55h-5.81l-.05-6.55h5.86z"/><path class="cls-23" d="M786.63 401.71v.29a23.91 23.91 0 01-2.46 10.5 21.36 21.36 0 01-2.18 3.53 20.55 20.55 0 01-3 3.25 19.29 19.29 0 01-8.21 4.25 21 21 0 01-4.25.55 21.62 21.62 0 01-3.94-.24 24 24 0 01-3.55-.8 26.43 26.43 0 01-5.88-2.61 32.55 32.55 0 01-4.31-3.05 39.52 39.52 0 01-3.09-2.84l-.33-.34a9.33 9.33 0 01-10-8.62 9 9 0 010-1.27 1.92 1.92 0 01.64-1.32c1.08-.93 2.38 0 3.09 1s1.18 1.94 2.21 2.26a2 2 0 001.81-.36 1.8 1.8 0 00.2-.19 1.25 1.25 0 011.75-.1 1.26 1.26 0 01.25.31 7.27 7.27 0 01.59 1.34 14.62 14.62 0 01.59 3c1.46.52 3.24 1.22 5.29 1.91a42.33 42.33 0 004.27 1.21 24 24 0 004.63.57 16.88 16.88 0 002.36-.1 12.49 12.49 0 002.26-.42 11.69 11.69 0 002-.74 10.47 10.47 0 001.71-1 9.87 9.87 0 001.41-1.33 10.87 10.87 0 001.2-1.59 18.58 18.58 0 001.79-3.7 25.84 25.84 0 001-3.88c.2-1 .35-2 .49-3a19.57 19.57 0 0011.66 3.53z"/><path class="cls-30" d="M771.92 354a6.42 6.42 0 013.62-4.11 8.67 8.67 0 015.55-.4 9.69 9.69 0 014.95 2.89 8.35 8.35 0 012.17 5.28c.09 3.08-1.62 5.88-3.28 8.47A38.54 38.54 0 00771.92 354z"/><path class="cls-7" d="M770 350.5a4.63 4.63 0 00-2.86-.83 3 3 0 00-2.21 3.16 5.85 5.85 0 002 3.64 11.53 11.53 0 0012.47 2.37c.53-.22 1.94-.69 2.21-1.22.44-.88-.49-1-1.24-1.45q-5.2-2.82-10.37-5.67z"/><path class="cls-31" d="M781 375a13.34 13.34 0 003.45-14.88 11.93 11.93 0 00-2.36-2.95 17 17 0 00-2.53 6.08A18.32 18.32 0 00781 375zm-11.6-13.34a6.55 6.55 0 001 6.39 12.3 12.3 0 002-5.11 1.67 1.67 0 00-.24-1.39 1.5 1.5 0 00-1.32-.32c-.47.06-.98.54-1.44.43z"/><path class="cls-23" d="M770.9 360.78c.46 2.43-.64 4.84-1.6 7.12s-1.82 4.86-.91 7.16a6 6 0 006.29 3.4 8.25 8.25 0 005.94-4.45 13.53 13.53 0 001.28-7.49 39.52 39.52 0 00-1.61-7.52c-3.1-1.59-6.74-.48-9.39 1.78z"/><path class="cls-23" d="M781.24 367.28a4.11 4.11 0 011-.86 1.74 1.74 0 011.32-.17 1.85 1.85 0 011.14 1.28 2.86 2.86 0 01-4.1 3.36 16.47 16.47 0 00.64-3.61z"/><path class="cls-31" d="M769.12 362.67a19 19 0 0010.37-2.67 6.47 6.47 0 000 3.27 7.24 7.24 0 002.66 3.87A10.41 10.41 0 00784 360c0-.29-.12-.57-.2-.86a11.73 11.73 0 00-1.69-1.9 10.87 10.87 0 00-3.36-2.1 11.52 11.52 0 00-10.06 1 7.83 7.83 0 00-.73.68 7 7 0 00-1.35 2.08 2.81 2.81 0 001.68 3.6 2.61 2.61 0 00.83.17z"/><path class="cls-32" d="M590 492.35a36.1 36.1 0 10-36.1 36.1 36.15 36.15 0 0036.1-36.1zm-197.9.42a35.79 35.79 0 10-35.79 35.79 35.9 35.9 0 0035.79-35.79z"/><path fill="#289917" d="M241.58 308.24h121.47v161.89H241.58z"/><path class="cls-34" d="M246.95 431.5h38.74v38.74h-38.74z"/><path class="cls-35" d="M304.95 424.98l-19.37 6.52v38.64l19.37-6.43v-38.73z"/><path class="cls-36" d="M246.95 431.5l19.26-6.52h38.74l-19.37 6.52h-38.63z"/><path class="cls-21" d="M291.47 457.4v10.74l5.79-1.9V455.4l-5.79 2z"/><path fill="#295110" d="M291.47 429.5v10.85l5.79-1.9v-10.84l-5.79 1.89z"/><path class="cls-38" d="M258.63 427.61l-.84.21-1.16.42-4.1 1.26h38.94l5.79-1.89h-38.63z"/><path class="cls-36" d="M270.84 447.4h22.84v22.84h-22.84z"/><path class="cls-34" d="M305.05 443.61l-11.47 3.79v22.74l11.47-3.79v-22.74z"/><path class="cls-39" d="M270.84 447.4l11.37-3.79h22.84l-11.47 3.79h-22.74z"/><path class="cls-35" d="M297.05 462.66v6.32l3.48-1.05v-6.43l-3.48 1.16zm0-16.42v6.32l3.48-1.16v-6.32l-3.48 1.16z"/><path class="cls-36" d="M277.69 445.08l-.43.11-.73.31-2.42.74h22.94l3.48-1.16h-22.84z"/><path class="cls-39" d="M299.05 397.51h49.68v72.63h-49.68z"/><path class="cls-36" d="M373.58 396.56l-24.84.95v72.63l24.84.1v-73.68z"/><path class="cls-38" d="M356.31 449.61v20.53h7.48v-24l-7.48 3.47z"/><path d="M363.05 470.14h325.47c3.16 0 5.68 2.84 5.68 6.31v13.69c0 3.47-2.52 6.31-5.68 6.31H363.05z" fill="#1d4259"/><path class="cls-41" d="M685.68 470.14H537.57v-121h74.32A43.69 43.69 0 01648 368.35l30.32 44.84a43.9 43.9 0 017.47 24.42l-.1 32.53z"/><path class="cls-32" d="M573.05 420.77v-58h38.63a30 30 0 0124.84 13.16l30.31 44.84z"/><path class="cls-42" d="M537.47 349.09h17.89v121.05h-17.89z"/><path class="cls-43" d="M363.05 441.5H380v16.1h-16.95z"/><path class="cls-42" d="M589.15 431.93h-13a3 3 0 01-3-2.95v-3.37h19.05V429a3 3 0 01-3.05 2.95z"/><path d="M589.15 430.35h-13a3 3 0 01-3-3v-1.79h19.05v1.79a3 3 0 01-3.05 3z" fill="#222846"/><path class="cls-31" d="M674.2 454.77a11.51 11.51 0 0111.48-11.48v23.06a11.53 11.53 0 01-11.48-11.58z"/><path class="cls-25" d="M242.11 470.14h120.94a7.77 7.77 0 017.79 7.79v10.63a7.77 7.77 0 01-7.79 7.79H242.11a7.77 7.77 0 01-7.79-7.79v-10.63a7.83 7.83 0 017.79-7.79z"/><path class="cls-43" d="M349.05 483.29a5.58 5.58 0 115.58 5.58 5.54 5.54 0 01-5.58-5.58z"/><path class="cls-31" d="M339.47 483.29a2.72 2.72 0 012.74-2.73 2.88 2.88 0 012.84 2.73 2.74 2.74 0 01-2.84 2.74 2.6 2.6 0 01-2.74-2.74z"/><path class="cls-43" d="M252.74 483.29a5.58 5.58 0 11-5.58-5.58 5.62 5.62 0 015.58 5.58z"/><path class="cls-31" d="M262.32 483.29a2.74 2.74 0 11-2.74-2.73 2.65 2.65 0 012.74 2.73z"/><path class="cls-42" d="M241.58 308.24h121.47v7.79H241.58z"/><path class="cls-45" d="M555.36 444.14l60.84 19.47s-6 4-8 6.53h-52.84z"/><path class="cls-31" d="M616.2 463.61l-60.84-19.47v-13.27l71.48 28.42a32 32 0 00-10.64 4.32z"/><path class="cls-41" d="M363.05 308.24h178.52v161.89H363.05z"/><path class="cls-45" d="M363.05 437.5l178.52 5.06v27.58H363.05V437.5z"/><path class="cls-32" d="M441.79 458.14a38.26 38.26 0 00-38.21 38.21H480a38.14 38.14 0 00-38.21-38.21z"/><path class="cls-32" d="M436.73 464a32.17 32.17 0 00-1.79 64.32h10.74v-64.39h-8.95z"/><path class="cls-25" d="M475.36 496.24a32.21 32.21 0 10-32.2 32.21 32.21 32.21 0 0032.2-32.21z"/><circle class="cls-45" cx="443.26" cy="496.24" r="15.79"/><path class="cls-31" d="M541.57 442.56l-178.52-5.06v-16.52l178.63 8.1-.11 13.48z"/><path d="M495.36 371l-14.31-24a10.92 10.92 0 00-13.26-4l-60.32 31.37a5.59 5.59 0 00-3.05 5v14.53a3.15 3.15 0 004.1 3.26L468.1 381a10.79 10.79 0 0112.74 4l10.1 10c1.79 2.53 5.37 1 5.37-2.21v-18.55a4.85 4.85 0 00-.95-3.24z" fill="#fd0"/><path class="cls-32" d="M636 458.14a38.27 38.27 0 00-38.21 38.21h76.41a38.14 38.14 0 00-38.2-38.21z"/><path class="cls-32" d="M630.94 464a32.17 32.17 0 00-1.79 64.32h10.63v-64.39h-8.84z"/><path class="cls-25" d="M669.57 496.24a32.21 32.21 0 10-32.21 32.21 32.21 32.21 0 0032.21-32.21z"/><circle class="cls-45" cx="637.47" cy="496.24" r="15.79"/></svg>